<svg xmlns="http://www.w3.org/2000/svg" xmlns:xlink="http://www.w3.org/1999/xlink" zoomAndPan="magnify" preserveAspectRatio="xMidYMid meet" version="1.0" viewBox="163.46 622.55 1177.11 208.03"><defs><g/><clipPath id="1b2ccd2562"><rect x="0" width="1201" y="0" height="270"/></clipPath></defs><g transform="matrix(1, 0, 0, 1, 155, 615)"><g clip-path="url(#1b2ccd2562)"><g fill="#ee3a29" fill-opacity="1"><g transform="translate(0.382413, 202.389473)"><g><path d="M 102.265625 -94.1875 L 154.484375 -94.1875 L 154.484375 0 L 8.078125 0 L 8.078125 -188.390625 L 102.265625 -188.390625 Z M 102.265625 -94.1875 "/></g></g></g><g fill="#ee3a29" fill-opacity="1"><g transform="translate(172.886574, 202.389473)"><g><path d="M 7.796875 -188.65625 L 163.890625 -188.65625 L 163.890625 -125.140625 L 124.875 -125.140625 L 124.875 -117.0625 L 163.890625 -117.0625 L 163.890625 -71.859375 L 124.875 -71.859375 L 124.875 -63.78125 L 163.890625 -63.78125 L 163.890625 -0.265625 L 7.796875 -0.265625 Z M 7.796875 -188.65625 "/></g></g></g><g fill="#ee3a29" fill-opacity="1"><g transform="translate(355.348078, 202.389473)"><g><path d="M 231.984375 -188.65625 L 113.03125 13.1875 L -6.1875 -188.65625 Z M 231.984375 -188.65625 "/></g></g></g><g fill="#ee3a29" fill-opacity="1"><g transform="translate(574.947756, 202.389473)"><g><path d="M 103.078125 -194.84375 C 116.890625 -194.84375 129.847656 -192.238281 141.953125 -187.03125 C 154.066406 -181.832031 164.742188 -174.613281 173.984375 -165.375 C 183.222656 -156.132812 190.441406 -145.457031 195.640625 -133.34375 C 200.847656 -121.238281 203.453125 -108.28125 203.453125 -94.46875 C 203.453125 -80.644531 200.847656 -67.675781 195.640625 -55.5625 C 190.441406 -43.457031 183.222656 -32.785156 173.984375 -23.546875 C 164.742188 -14.304688 154.066406 -7.082031 141.953125 -1.875 C 129.847656 3.320312 116.890625 5.921875 103.078125 5.921875 C 89.265625 5.921875 76.300781 3.320312 64.1875 -1.875 C 52.070312 -7.082031 41.394531 -14.304688 32.15625 -23.546875 C 22.914062 -32.785156 15.691406 -43.457031 10.484375 -55.5625 C 5.285156 -67.675781 2.6875 -80.644531 2.6875 -94.46875 C 2.6875 -108.28125 5.285156 -121.238281 10.484375 -133.34375 C 15.691406 -145.457031 22.914062 -156.132812 32.15625 -165.375 C 41.394531 -174.613281 52.070312 -181.832031 64.1875 -187.03125 C 76.300781 -192.238281 89.265625 -194.84375 103.078125 -194.84375 Z M 103.078125 -194.84375 "/></g></g></g><g fill="#ee3a29" fill-opacity="1"><g transform="translate(793.201854, 202.389473)"><g><path d="M 98.5 -188.390625 C 109.082031 -188.390625 118.992188 -186.414062 128.234375 -182.46875 C 137.472656 -178.519531 145.632812 -173.046875 152.71875 -166.046875 C 159.8125 -159.046875 165.332031 -150.878906 169.28125 -141.546875 C 173.226562 -132.222656 175.203125 -122.269531 175.203125 -111.6875 C 175.203125 -99.488281 172.554688 -88.1875 167.265625 -77.78125 C 161.972656 -67.375 154.835938 -58.671875 145.859375 -51.671875 L 173.578125 0.265625 L 8.078125 0.265625 C 8.078125 -22.878906 8.078125 -41.804688 8.078125 -56.515625 C 8.078125 -71.222656 8.078125 -82.75 8.078125 -91.09375 C 8.078125 -99.4375 8.078125 -105.492188 8.078125 -109.265625 C 8.078125 -113.035156 8.078125 -115.457031 8.078125 -116.53125 C 8.078125 -117.601562 8.078125 -118.273438 8.078125 -118.546875 C 8.078125 -118.816406 8.078125 -119.671875 8.078125 -121.109375 C 8.078125 -122.546875 8.078125 -125.460938 8.078125 -129.859375 C 8.078125 -134.253906 8.078125 -141.070312 8.078125 -150.3125 C 8.078125 -159.550781 8.078125 -172.242188 8.078125 -188.390625 Z M 98.5 -188.390625 "/></g></g></g><g fill="#ee3a29" fill-opacity="1"><g transform="translate(982.1222, 202.389473)"><g><path d="M 103.078125 -194.84375 C 116.890625 -194.84375 129.847656 -192.238281 141.953125 -187.03125 C 154.066406 -181.832031 164.742188 -174.613281 173.984375 -165.375 C 183.222656 -156.132812 190.441406 -145.457031 195.640625 -133.34375 C 200.847656 -121.238281 203.453125 -108.28125 203.453125 -94.46875 C 203.453125 -80.644531 200.847656 -67.675781 195.640625 -55.5625 C 190.441406 -43.457031 183.222656 -32.785156 173.984375 -23.546875 C 164.742188 -14.304688 154.066406 -7.082031 141.953125 -1.875 C 129.847656 3.320312 116.890625 5.921875 103.078125 5.921875 C 89.265625 5.921875 76.300781 3.320312 64.1875 -1.875 C 52.070312 -7.082031 41.394531 -14.304688 32.15625 -23.546875 C 22.914062 -32.785156 15.691406 -43.457031 10.484375 -55.5625 C 5.285156 -67.675781 2.6875 -80.644531 2.6875 -94.46875 C 2.6875 -108.28125 5.285156 -121.238281 10.484375 -133.34375 C 15.691406 -145.457031 22.914062 -156.132812 32.15625 -165.375 C 41.394531 -174.613281 52.070312 -181.832031 64.1875 -187.03125 C 76.300781 -192.238281 89.265625 -194.84375 103.078125 -194.84375 Z M 103.078125 -194.84375 "/></g></g></g></g></g></svg>